<mxfile host="app.diagrams.net" agent="Mozilla/5.0 (Macintosh; Intel Mac OS X 10_15_7) AppleWebKit/605.1.15 (KHTML, like Gecko) Version/18.2 Safari/605.1.15" version="27.0.3">
  <diagram name="RAG Architecture" id="R6HM2WaVMJj6BM1IxDsT">
    <mxGraphModel dx="1845" dy="2247" grid="1" gridSize="10" guides="1" tooltips="1" connect="1" arrows="1" fold="1" page="1" pageScale="1" pageWidth="850" pageHeight="1100" math="0" shadow="0">
      <root>
        <mxCell id="0" />
        <mxCell id="1" parent="0" />
        <mxCell id="sxPdrCNQUxdm-kofwbuw-2" value="" style="rounded=1;fillColor=#cce5ff;fontSize=14;fontStyle=1;strokeColor=#36393d;" vertex="1" parent="1">
          <mxGeometry x="80" y="-340" width="700" height="490" as="geometry" />
        </mxCell>
        <mxCell id="sxPdrCNQUxdm-kofwbuw-3" value="Webpage URL" style="rounded=1;fillColor=#ffffff;" vertex="1" parent="sxPdrCNQUxdm-kofwbuw-2">
          <mxGeometry x="40" y="98" width="120" height="81.66666666666667" as="geometry" />
        </mxCell>
        <mxCell id="sxPdrCNQUxdm-kofwbuw-4" value="Scrape PDFs" style="rounded=1;fillColor=#ffffff;" vertex="1" parent="sxPdrCNQUxdm-kofwbuw-2">
          <mxGeometry x="200" y="98" width="120" height="81.66666666666667" as="geometry" />
        </mxCell>
        <mxCell id="sxPdrCNQUxdm-kofwbuw-5" value="PDF Download" style="rounded=1;fillColor=#ffffff;" vertex="1" parent="sxPdrCNQUxdm-kofwbuw-2">
          <mxGeometry x="360" y="98" width="120" height="81.66666666666667" as="geometry" />
        </mxCell>
        <mxCell id="sxPdrCNQUxdm-kofwbuw-6" value="PyPDFLoader (pypdf)" style="rounded=1;fillColor=#ffffff;" vertex="1" parent="sxPdrCNQUxdm-kofwbuw-2">
          <mxGeometry x="320" y="261.3333333333333" width="140" height="81.66666666666667" as="geometry" />
        </mxCell>
        <mxCell id="sxPdrCNQUxdm-kofwbuw-7" value="Text Splitter 800-char chunks" style="rounded=1;fillColor=#ffffff;fontSize=11;" vertex="1" parent="sxPdrCNQUxdm-kofwbuw-2">
          <mxGeometry x="490" y="261.3333333333333" width="140" height="81.66666666666667" as="geometry" />
        </mxCell>
        <mxCell id="sxPdrCNQUxdm-kofwbuw-8" style="edgeStyle=orthogonalEdgeStyle;rounded=0;orthogonalLoop=1;jettySize=auto;html=1;strokeColor=#000000;" edge="1" parent="sxPdrCNQUxdm-kofwbuw-2" source="sxPdrCNQUxdm-kofwbuw-3" target="sxPdrCNQUxdm-kofwbuw-4">
          <mxGeometry relative="1" as="geometry" />
        </mxCell>
        <mxCell id="sxPdrCNQUxdm-kofwbuw-9" style="edgeStyle=orthogonalEdgeStyle;rounded=0;orthogonalLoop=1;jettySize=auto;html=1;strokeColor=#000000;" edge="1" parent="sxPdrCNQUxdm-kofwbuw-2" source="sxPdrCNQUxdm-kofwbuw-4" target="sxPdrCNQUxdm-kofwbuw-5">
          <mxGeometry relative="1" as="geometry" />
        </mxCell>
        <mxCell id="sxPdrCNQUxdm-kofwbuw-10" style="edgeStyle=orthogonalEdgeStyle;rounded=0;orthogonalLoop=1;jettySize=auto;html=1;strokeColor=#000000;" edge="1" parent="sxPdrCNQUxdm-kofwbuw-2" source="sxPdrCNQUxdm-kofwbuw-5" target="sxPdrCNQUxdm-kofwbuw-7">
          <mxGeometry relative="1" as="geometry" />
        </mxCell>
        <mxCell id="sxPdrCNQUxdm-kofwbuw-11" style="edgeStyle=orthogonalEdgeStyle;rounded=0;orthogonalLoop=1;jettySize=auto;html=1;strokeColor=#000000;" edge="1" parent="sxPdrCNQUxdm-kofwbuw-2" source="sxPdrCNQUxdm-kofwbuw-7" target="sxPdrCNQUxdm-kofwbuw-6">
          <mxGeometry relative="1" as="geometry" />
        </mxCell>
        <mxCell id="sxPdrCNQUxdm-kofwbuw-55" value="&lt;font style=&quot;font-size: 20px;&quot;&gt;Ingestion Pipeline&lt;/font&gt;" style="text;html=1;align=center;verticalAlign=middle;whiteSpace=wrap;rounded=0;" vertex="1" parent="sxPdrCNQUxdm-kofwbuw-2">
          <mxGeometry x="253" y="20" width="185" height="30" as="geometry" />
        </mxCell>
        <mxCell id="sxPdrCNQUxdm-kofwbuw-26" value="" style="rounded=1;fillColor=#647687;fontSize=14;fontStyle=1;fontColor=light-dark(#FFFFFF,#FFFFFF);strokeColor=#314354;spacingLeft=2;" vertex="1" parent="1">
          <mxGeometry x="75" y="170" width="700" height="480" as="geometry" />
        </mxCell>
        <mxCell id="sxPdrCNQUxdm-kofwbuw-27" value="PostgreSQL" style="rounded=1;fillColor=#ffffff;" vertex="1" parent="sxPdrCNQUxdm-kofwbuw-26">
          <mxGeometry x="110" y="96" width="120" height="80.00000000000001" as="geometry" />
        </mxCell>
        <mxCell id="sxPdrCNQUxdm-kofwbuw-29" value="Build Prompt" style="rounded=1;fillColor=#ffffff;" vertex="1" parent="sxPdrCNQUxdm-kofwbuw-26">
          <mxGeometry x="335" y="96" width="120" height="80.00000000000001" as="geometry" />
        </mxCell>
        <mxCell id="sxPdrCNQUxdm-kofwbuw-30" value="User Query" style="rounded=1;fillColor=#ffffff;" vertex="1" parent="sxPdrCNQUxdm-kofwbuw-26">
          <mxGeometry x="100" y="235.105306122449" width="140" height="80.00000000000001" as="geometry" />
        </mxCell>
        <mxCell id="sxPdrCNQUxdm-kofwbuw-31" value="Generated Answer" style="rounded=1;fillColor=#ffffff;fontSize=11;" vertex="1" parent="sxPdrCNQUxdm-kofwbuw-26">
          <mxGeometry x="490" y="205.71755102040817" width="140" height="80.00000000000001" as="geometry" />
        </mxCell>
        <mxCell id="sxPdrCNQUxdm-kofwbuw-36" value="Embed QueryÂ &#xa;(Ollama Embeddings)" style="rounded=1;fillColor=#ffffff;" vertex="1" parent="sxPdrCNQUxdm-kofwbuw-26">
          <mxGeometry x="490" y="341.88081632653063" width="140" height="80.00000000000001" as="geometry" />
        </mxCell>
        <mxCell id="sxPdrCNQUxdm-kofwbuw-37" value="" style="endArrow=classic;html=1;rounded=0;entryX=1;entryY=0.5;entryDx=0;entryDy=0;exitX=0;exitY=0.5;exitDx=0;exitDy=0;" edge="1" parent="sxPdrCNQUxdm-kofwbuw-26" source="sxPdrCNQUxdm-kofwbuw-29" target="sxPdrCNQUxdm-kofwbuw-27">
          <mxGeometry width="50" height="50" relative="1" as="geometry">
            <mxPoint x="360" y="225.30612244897958" as="sourcePoint" />
            <mxPoint x="410" y="176.3265306122449" as="targetPoint" />
          </mxGeometry>
        </mxCell>
        <mxCell id="sxPdrCNQUxdm-kofwbuw-38" value="" style="endArrow=classic;html=1;rounded=0;entryX=0.5;entryY=0;entryDx=0;entryDy=0;exitX=0.5;exitY=1;exitDx=0;exitDy=0;" edge="1" parent="sxPdrCNQUxdm-kofwbuw-26" source="sxPdrCNQUxdm-kofwbuw-27" target="sxPdrCNQUxdm-kofwbuw-30">
          <mxGeometry width="50" height="50" relative="1" as="geometry">
            <mxPoint x="360" y="225.30612244897958" as="sourcePoint" />
            <mxPoint x="410" y="176.3265306122449" as="targetPoint" />
          </mxGeometry>
        </mxCell>
        <mxCell id="sxPdrCNQUxdm-kofwbuw-39" value="" style="endArrow=classic;html=1;rounded=0;entryX=0.014;entryY=0.392;entryDx=0;entryDy=0;entryPerimeter=0;exitX=0.5;exitY=1;exitDx=0;exitDy=0;" edge="1" parent="sxPdrCNQUxdm-kofwbuw-26" source="sxPdrCNQUxdm-kofwbuw-29" target="sxPdrCNQUxdm-kofwbuw-31">
          <mxGeometry width="50" height="50" relative="1" as="geometry">
            <mxPoint x="370" y="205.71428571428572" as="sourcePoint" />
            <mxPoint x="420" y="156.73469387755102" as="targetPoint" />
            <Array as="points">
              <mxPoint x="395" y="237.0612244897959" />
            </Array>
          </mxGeometry>
        </mxCell>
        <mxCell id="sxPdrCNQUxdm-kofwbuw-40" value="" style="endArrow=classic;html=1;rounded=0;entryX=0.5;entryY=0;entryDx=0;entryDy=0;exitX=0.5;exitY=1;exitDx=0;exitDy=0;" edge="1" parent="sxPdrCNQUxdm-kofwbuw-26" source="sxPdrCNQUxdm-kofwbuw-31" target="sxPdrCNQUxdm-kofwbuw-36">
          <mxGeometry width="50" height="50" relative="1" as="geometry">
            <mxPoint x="345" y="215.51020408163265" as="sourcePoint" />
            <mxPoint x="395" y="166.53061224489798" as="targetPoint" />
          </mxGeometry>
        </mxCell>
        <mxCell id="sxPdrCNQUxdm-kofwbuw-43" value="&lt;font style=&quot;font-size: 20px;&quot;&gt;Query Pipeline&lt;/font&gt;" style="text;html=1;align=center;verticalAlign=middle;whiteSpace=wrap;rounded=0;" vertex="1" parent="sxPdrCNQUxdm-kofwbuw-26">
          <mxGeometry x="258" y="440" width="185" height="30" as="geometry" />
        </mxCell>
        <mxCell id="sxPdrCNQUxdm-kofwbuw-41" value="" style="endArrow=classic;html=1;rounded=0;entryX=0.5;entryY=0;entryDx=0;entryDy=0;exitX=0.5;exitY=1;exitDx=0;exitDy=0;" edge="1" parent="1" source="sxPdrCNQUxdm-kofwbuw-6" target="sxPdrCNQUxdm-kofwbuw-29">
          <mxGeometry width="50" height="50" relative="1" as="geometry">
            <mxPoint x="420" y="120" as="sourcePoint" />
            <mxPoint x="470" y="70" as="targetPoint" />
          </mxGeometry>
        </mxCell>
        <mxCell id="sxPdrCNQUxdm-kofwbuw-42" value="" style="endArrow=classic;html=1;rounded=0;entryX=0.5;entryY=0;entryDx=0;entryDy=0;exitX=0.5;exitY=1;exitDx=0;exitDy=0;" edge="1" parent="1" source="sxPdrCNQUxdm-kofwbuw-7" target="sxPdrCNQUxdm-kofwbuw-31">
          <mxGeometry width="50" height="50" relative="1" as="geometry">
            <mxPoint x="420" y="230" as="sourcePoint" />
            <mxPoint x="470" y="180" as="targetPoint" />
          </mxGeometry>
        </mxCell>
      </root>
    </mxGraphModel>
  </diagram>
</mxfile>
